# xmcd CD database file
#
# Track frame offsets:
#	150
#	71032
#	94600
#	119251
#
# Disc length: 1939 seconds
#
# Revision: 1
# Processed by: cddbd v1.5.2PL0 Copyright (c) Steve Scherf et al.
# Submitted via: CDex 1.51
#
DISCID=2f079104
DTITLE=Dizzy Gillespie - Machito - Afro-Cuban Jazz Moods
DYEAR=1963
DGENRE=Jazz
TTITLE0=Oro, incienso y mirra
TTITLE1=Calidoscópico
TTITLE2=Pensativo
TTITLE3=Exuberante
EXTD=YEAR: 1963
EXTT0=
EXTT1=
EXTT2=
EXTT3=
PLAYORDER=
